HIERARCHY
ROOT Hips
{
	OFFSET 0.000000 35.082581 0.000000
	CHANNELS 6 Xposition Yposition Zposition Xrotation Yrotation Zrotation 
	JOINT Spine
	{
		OFFSET 0.000000 6.876099 0.125700
		CHANNELS 3 Xrotation Yrotation Zrotation
		JOINT Spine1
		{
			OFFSET 0.000000 5.730043 0.104720
			CHANNELS 3 Xrotation Yrotation Zrotation
			JOINT Spine1_split
			{
				OFFSET 0.000000 5.730043 0.104720
				CHANNELS 3 Xrotation Yrotation Zrotation
				JOINT Spine2
				{
					OFFSET 0.000000 5.730043 0.104720
					CHANNELS 3 Xrotation Yrotation Zrotation
					JOINT Neck
					{
						OFFSET 0.000000 10.314075 0.188496
						CHANNELS 3 Xrotation Yrotation Zrotation
						JOINT Head
						{
							OFFSET 0.000000 7.643700 -2.377400
							CHANNELS 3 Xrotation Yrotation Zrotation
							JOINT HeadTop_End
							{
								OFFSET 0.000000 43.788605 -13.619600
								CHANNELS 3 Xrotation Yrotation Zrotation
								End Site
								{
									OFFSET 0.000000 0.000000 0.000000
								}
							}
						}
					}
					JOINT LeftShoulder
					{
						OFFSET 2.196100 4.412489 0.087492
						CHANNELS 3 Xrotation Yrotation Zrotation
						JOINT LeftShoulder_split
						{
							OFFSET 2.196100 4.412489 0.087492
							CHANNELS 3 Xrotation Yrotation Zrotation
							JOINT LeftArm
							{
								OFFSET 8.771219 -2.981674 -0.026999
								CHANNELS 3 Xrotation Yrotation Zrotation
								JOINT LeftForeArm
								{
									OFFSET 8.512804 0.000000 -0.000000
									CHANNELS 3 Xrotation Yrotation Zrotation
									JOINT LeftHand
									{
										OFFSET 18.484802 0.000000 -0.000000
										CHANNELS 3 Xrotation Yrotation Zrotation
										JOINT LeftHandThumb1
										{
											OFFSET 2.499420 -1.158070 2.653252
											CHANNELS 3 Xrotation Yrotation Zrotation
											JOINT LeftHandThumb2
											{
												OFFSET 2.370079 -1.368366 1.368366
												CHANNELS 3 Xrotation Yrotation Zrotation
												JOINT LeftHandThumb3
												{
													OFFSET 2.676727 -1.545410 1.545409
													CHANNELS 3 Xrotation Yrotation Zrotation
													JOINT LeftHandThumb4
													{
														OFFSET 1.692226 -0.977005 0.977007
														CHANNELS 3 Xrotation Yrotation Zrotation
														End Site
														{
															OFFSET 0.000000 0.000000 0.000000
														}
													}
												}
											}
										}
										JOINT LeftHandIndex1
										{
											OFFSET 7.924831 -0.457527 2.345128
											CHANNELS 3 Xrotation Yrotation Zrotation
											JOINT LeftHandIndex2
											{
												OFFSET 3.643303 0.000000 0.000000
												CHANNELS 3 Xrotation Yrotation Zrotation
												JOINT LeftHandIndex3
												{
													OFFSET 3.810799 0.000000 0.000000
													CHANNELS 3 Xrotation Yrotation Zrotation
													JOINT LeftHandIndex4
													{
														OFFSET 2.403702 0.000000 0.000000
														CHANNELS 3 Xrotation Yrotation Zrotation
														End Site
														{
															OFFSET 0.000000 0.000000 0.000000
														}
													}
												}
											}
										}
										JOINT LeftHandMiddle1
										{
											OFFSET 8.563995 0.000000 -0.000000
											CHANNELS 3 Xrotation Yrotation Zrotation
											JOINT LeftHandMiddle2
											{
												OFFSET 3.861618 0.000000 0.000000
												CHANNELS 3 Xrotation Yrotation Zrotation
												JOINT LeftHandMiddle3
												{
													OFFSET 3.701603 0.000000 0.000000
													CHANNELS 3 Xrotation Yrotation Zrotation
													JOINT LeftHandMiddle4
													{
														OFFSET 2.322544 0.000000 0.000000
														CHANNELS 3 Xrotation Yrotation Zrotation
														End Site
														{
															OFFSET 0.000000 0.000000 0.000000
														}
													}
												}
											}
										}
										JOINT LeftHandRing1
										{
											OFFSET 8.426460 -0.424637 -3.286992
											CHANNELS 3 Xrotation Yrotation Zrotation
											JOINT LeftHandRing2
											{
												OFFSET 3.126408 0.000000 0.000000
												CHANNELS 3 Xrotation Yrotation Zrotation
												JOINT LeftHandRing3
												{
													OFFSET 3.085026 0.000000 0.000000
													CHANNELS 3 Xrotation Yrotation Zrotation
													JOINT LeftHandRing4
													{
														OFFSET 1.644005 0.000000 0.000000
														CHANNELS 3 Xrotation Yrotation Zrotation
														End Site
														{
															OFFSET 0.000000 0.000000 0.000000
														}
													}
												}
											}
										}
									}
								}
							}
						}
					}
					JOINT RightShoulder
					{
						OFFSET -2.196100 4.412496 0.070690
						CHANNELS 3 Xrotation Yrotation Zrotation
						JOINT RightShoulder_split
						{
							OFFSET -2.196100 4.412496 0.070690
							CHANNELS 3 Xrotation Yrotation Zrotation
							JOINT RightArm
							{
								OFFSET -8.771282 -2.981682 -0.094208
								CHANNELS 3 Xrotation Yrotation Zrotation
								JOINT RightForeArm
								{
									OFFSET -8.494598 0.000000 0.000000
									CHANNELS 3 Xrotation Yrotation Zrotation
									JOINT RightHand
									{
										OFFSET -18.483803 0.000000 0.000001
										CHANNELS 3 Xrotation Yrotation Zrotation
										JOINT RightHandThumb1
										{
											OFFSET -2.527351 -1.008072 2.575253
											CHANNELS 3 Xrotation Yrotation Zrotation
											JOINT RightHandThumb2
											{
												OFFSET -2.321518 -1.340328 1.340329
												CHANNELS 3 Xrotation Yrotation Zrotation
												JOINT RightHandThumb3
												{
													OFFSET -2.657753 -1.534454 1.534455
													CHANNELS 3 Xrotation Yrotation Zrotation
													JOINT RightHandThumb4
													{
														OFFSET -1.807510 -1.043568 1.043567
														CHANNELS 3 Xrotation Yrotation Zrotation
														End Site
														{
															OFFSET 0.000000 0.000000 0.000000
														}
													}
												}
											}
										}
										JOINT RightHandIndex1
										{
											OFFSET -8.811420 0.015533 2.887987
											CHANNELS 3 Xrotation Yrotation Zrotation
											JOINT RightHandIndex2
											{
												OFFSET -3.537502 0.000000 0.000000
												CHANNELS 3 Xrotation Yrotation Zrotation
												JOINT RightHandIndex3
												{
													OFFSET -3.356201 0.000000 0.000000
													CHANNELS 3 Xrotation Yrotation Zrotation
													JOINT RightHandIndex4
													{
														OFFSET -1.933098 0.000000 0.000000
														CHANNELS 3 Xrotation Yrotation Zrotation
														End Site
														{
															OFFSET 0.000000 0.000000 0.000000
														}
													}
												}
											}
										}
										JOINT RightHandMiddle1
										{
											OFFSET -8.178135 0.000000 0.000000
											CHANNELS 3 Xrotation Yrotation Zrotation
											JOINT RightHandMiddle2
											{
												OFFSET -3.901302 0.000000 0.000000
												CHANNELS 3 Xrotation Yrotation Zrotation
												JOINT RightHandMiddle3
												{
													OFFSET -3.909599 0.000000 0.000000
													CHANNELS 3 Xrotation Yrotation Zrotation
													JOINT RightHandMiddle4
													{
														OFFSET -2.376003 0.000000 0.000000
														CHANNELS 3 Xrotation Yrotation Zrotation
														End Site
														{
															OFFSET 0.000000 0.000000 0.000000
														}
													}
												}
											}
										}
										JOINT RightHandRing1
										{
											OFFSET -7.559013 0.014137 -2.865403
											CHANNELS 3 Xrotation Yrotation Zrotation
											JOINT RightHandRing2
											{
												OFFSET -3.449306 0.000000 0.000000
												CHANNELS 3 Xrotation Yrotation Zrotation
												JOINT RightHandRing3
												{
													OFFSET -3.362106 0.000000 0.000000
													CHANNELS 3 Xrotation Yrotation Zrotation
													JOINT RightHandRing4
													{
														OFFSET -2.076401 0.000000 0.000000
														CHANNELS 3 Xrotation Yrotation Zrotation
														End Site
														{
															OFFSET 0.000000 0.000000 0.000000
														}
													}
												}
											}
										}
									}
								}
							}
						}
					}
				}
			}
		}
	}
	JOINT LeftUpLeg
	{
		OFFSET 10.205400 -3.823500 0.155100
		CHANNELS 3 Xrotation Yrotation Zrotation
		JOINT LeftLeg
		{
			OFFSET 0.708757 -12.982077 0.567790
			CHANNELS 3 Xrotation Yrotation Zrotation
			JOINT LeftFoot
			{
				OFFSET -0.708756 -10.717838 -2.184338
				CHANNELS 3 Xrotation Yrotation Zrotation
				JOINT LeftToeBase
				{
					OFFSET 0.108149 -7.191104 7.560241
					CHANNELS 3 Xrotation Yrotation Zrotation
					JOINT LeftToe_End
					{
						OFFSET 0.070230 0.081724 4.490308
						CHANNELS 3 Xrotation Yrotation Zrotation
						End Site
						{
							OFFSET 0.000000 0.000000 0.000000
						}
					}
				}
			}
		}
	}
	JOINT RightUpLeg
	{
		OFFSET -10.205400 -3.823500 0.005500
		CHANNELS 3 Xrotation Yrotation Zrotation
		JOINT RightLeg
		{
			OFFSET -0.708756 -12.982134 0.610632
			CHANNELS 3 Xrotation Yrotation Zrotation
			JOINT RightFoot
			{
				OFFSET 0.708754 -10.717769 -1.945823
				CHANNELS 3 Xrotation Yrotation Zrotation
				JOINT RightToeBase
				{
					OFFSET -0.108140 -7.191069 7.372968
					CHANNELS 3 Xrotation Yrotation Zrotation
					JOINT RightToe_End
					{
						OFFSET -0.070227 0.081735 4.479403
						CHANNELS 3 Xrotation Yrotation Zrotation
						End Site
						{
							OFFSET 0.000000 0.000000 0.000000
						}
					}
				}
			}
		}
	}
}
MOTION
Frames: 5
Frame Time: 0.016667
-0.001311 33.491119 -0.886791 2.912698 -29.017738 1.158343 7.836598 -0.331481 -2.654184 1.099248 -0.880570 2.383464 0.000000 0.000000 0.000000 1.108680 -0.590432 2.446365 -3.841838 18.019057 -6.496489 -6.332743 13.021566 0.301528 -0.000000 0.000000 -0.000000 -0.057392 -8.759454 -0.060964 0.000000 0.000000 0.000000 -55.250831 0.329454 -41.449344 11.584305 -65.827301 13.005461 -50.191037 12.352944 4.610825 17.551626 -5.699190 -12.932278 10.850454 26.127710 8.644825 20.926989 51.115869 0.218812 -0.000002 0.000000 0.000001 13.980897 1.201545 -55.004381 0.370802 1.161752 -65.441893 1.983978 2.147985 -57.665129 0.000000 0.000001 -0.000001 7.504734 1.174496 -63.778517 1.807808 1.475674 -64.567937 0.130351 -0.912232 -43.272534 0.000000 -0.000001 -0.000000 8.574335 2.179171 -75.149013 -0.207643 1.009279 -57.855049 0.443111 1.742193 -53.581267 -0.000000 -0.000001 0.000001 4.849309 7.760154 5.560465 0.000000 0.000000 0.000000 -0.933457 -2.176914 61.845642 11.299298 18.943572 -3.987604 -0.459221 6.620100 5.830204 15.788385 -2.734503 -17.205793 -2.198335 -31.113564 7.361255 -6.564284 -4.136670 2.406519 -0.000001 -0.000006 -0.000001 2.382178 -3.656540 8.488163 -2.150638 -2.471233 18.673307 -1.903753 -4.812982 14.173554 -0.000000 -0.000000 0.000000 -1.979715 -5.703094 13.662280 0.280399 -5.098939 26.988036 -0.665011 -1.219187 16.125843 -0.000000 0.000000 0.000001 -3.257601 -8.560620 11.770091 4.036133 -4.060206 33.262977 2.105481 -3.157822 15.593628 -0.000000 -0.000000 -0.000000 -17.082231 16.719031 17.224752 28.083808 9.554266 -5.132636 -11.722181 -1.484314 -9.413732 -0.184439 0.007683 -0.261462 -0.000000 -0.000000 0.000000 -14.529778 0.511743 -12.879608 22.479008 10.998955 2.299484 -11.779427 -2.097174 8.559156 -1.288092 -0.016829 0.151288 0.000000 -0.000000 0.000000 
-0.064604 33.376461 -0.820801 3.089484 -27.971648 1.281855 7.586417 -0.097247 -2.929084 1.179885 -0.587881 2.428846 0.000000 0.000000 0.000000 1.179489 -0.331349 2.447597 -4.361379 17.503039 -6.286971 -6.658289 12.494607 0.882709 -0.000000 -0.000000 -0.000000 -0.156526 -7.613170 -0.517563 0.000000 0.000000 0.000000 -54.992875 2.359962 -39.858873 14.183598 -68.506517 15.203569 -50.021106 11.836326 3.695156 17.551631 -5.699189 -12.932284 10.850444 26.127712 8.644829 20.926988 51.115876 0.218821 -0.000000 -0.000004 0.000001 13.980898 1.201544 -55.004381 0.370805 1.161751 -65.441893 1.983977 2.147984 -57.665136 0.000000 -0.000001 0.000001 7.504735 1.174499 -63.778517 1.807807 1.475674 -64.567937 0.130350 -0.912233 -43.272534 -0.000000 0.000001 -0.000001 8.574334 2.179173 -75.149013 -0.207646 1.009279 -57.855049 0.443110 1.742192 -53.581270 -0.000001 0.000001 -0.000001 4.812151 8.119682 5.688564 0.000000 0.000000 0.000000 -0.408752 -2.451830 61.988522 12.244012 18.822506 -4.559243 -0.536301 7.009261 5.751511 15.835304 -2.735886 -17.119557 -2.264940 -31.017661 7.352474 -6.532641 -4.205991 2.392062 0.000002 -0.000002 -0.000002 2.381961 -3.658123 8.566171 -2.150599 -2.472783 18.751243 -1.903820 -4.813458 14.251541 0.000001 -0.000000 0.000001 -1.979297 -5.704405 13.740280 0.282754 -5.099366 27.066151 -0.665018 -1.220606 16.203802 0.000000 -0.000000 0.000002 -3.258049 -8.562274 11.847964 4.035934 -4.062109 33.341145 2.105856 -3.159229 15.671666 -0.000000 0.000000 0.000000 -18.313230 16.071742 17.140561 29.486302 8.791306 -4.809239 -12.229496 -1.305401 -9.410410 -0.170306 0.007628 -0.277758 0.000000 -0.000000 -0.000000 -14.589303 0.581253 -13.142067 24.217397 10.622273 2.617544 -13.457214 -2.576664 8.206441 -1.288097 -0.016803 0.151291 0.000000 0.000002 0.000000 
-0.124482 33.264523 -0.748017 3.262097 -26.760522 1.360861 7.263641 0.194962 -3.103537 1.305102 -0.239098 2.460833 0.000000 0.000000 0.000000 1.292174 -0.018790 2.426595 -4.964533 16.791069 -6.023531 -6.880097 11.820293 1.376510 0.000000 -0.000000 0.000000 -0.257676 -6.543737 -1.038071 0.000000 0.000000 0.000000 -54.949630 4.638172 -38.362662 19.162401 -71.200870 19.813566 -49.825373 10.829563 2.949353 17.551622 -5.699199 -12.932280 10.850457 26.127712 8.644829 20.926989 51.115879 0.218824 -0.000003 -0.000000 0.000002 13.980896 1.201541 -55.004381 0.370805 1.161750 -65.441893 1.983979 2.147987 -57.665129 -0.000000 -0.000002 0.000000 7.504735 1.174496 -63.778517 1.807807 1.475674 -64.567937 0.130351 -0.912235 -43.272534 -0.000000 -0.000001 0.000000 8.574335 2.179171 -75.149013 -0.207646 1.009279 -57.855049 0.443110 1.742191 -53.581273 -0.000000 0.000002 0.000001 4.776433 8.473873 5.863063 0.000000 0.000000 0.000000 0.334844 -2.740970 62.151204 13.457527 18.694455 -5.471689 -0.738285 7.226695 5.672251 15.960337 -2.740591 -16.876665 -2.449937 -30.750779 7.328911 -6.440411 -4.396679 2.350410 0.000001 0.000001 0.000003 2.381017 -3.658312 8.783368 -2.150668 -2.472930 18.968455 -1.903957 -4.814747 14.468777 -0.000000 -0.000000 0.000002 -1.978071 -5.708026 13.957461 0.282843 -5.100875 27.283367 -0.664596 -1.220685 16.421100 0.000001 -0.000000 0.000001 -3.259169 -8.562340 12.064996 4.035378 -4.062290 33.558335 2.106689 -3.159365 15.888939 0.000001 0.000000 0.000001 -19.637871 15.421792 17.067012 30.854348 7.868172 -4.517726 -12.659161 -1.145760 -9.289504 -0.159935 0.007583 -0.289755 -0.000000 -0.000000 -0.000000 -14.428356 0.540948 -13.234568 25.726258 10.581309 2.718999 -15.127672 -3.559163 7.858692 -1.288101 -0.016837 0.151298 0.000000 0.000000 -0.000000 
-0.182012 33.157036 -0.669846 3.425356 -25.387627 1.400569 6.888178 0.530457 -3.191359 1.460484 0.152815 2.478274 0.000000 0.000000 0.000000 1.433640 0.334550 2.384510 -5.614537 15.907838 -5.715406 -7.022094 11.021188 1.798168 -0.000000 0.000000 0.000000 -0.348967 -5.538394 -1.589060 0.000000 0.000000 0.000000 -55.141579 7.041871 -36.915458 26.186556 -73.767054 26.509824 -49.617885 9.602827 2.265848 17.551629 -5.699190 -12.932278 10.850452 26.127704 8.644824 20.926989 51.115872 0.218815 -0.000004 -0.000000 -0.000004 13.980897 1.201540 -55.004377 0.370804 1.161751 -65.441900 1.983978 2.147982 -57.665136 -0.000000 0.000000 -0.000000 7.504737 1.174496 -63.778524 1.807809 1.475673 -64.567937 0.130352 -0.912232 -43.272534 0.000000 -0.000002 0.000000 8.574334 2.179171 -75.149013 -0.207648 1.009279 -57.855049 0.443110 1.742195 -53.581270 -0.000000 -0.000000 -0.000001 4.736014 8.868335 6.075521 0.000000 0.000000 0.000000 1.246723 -3.107690 62.321241 14.852991 18.537207 -6.632881 -1.106525 7.329462 5.646183 16.151251 -2.746674 -16.506590 -2.730677 -30.343822 7.294863 -6.300017 -4.687453 2.287418 -0.000002 -0.000002 -0.000000 2.379594 -3.658622 9.114417 -2.150751 -2.473108 19.299591 -1.904145 -4.816677 14.799714 -0.000000 -0.000001 0.000000 -1.976188 -5.708182 14.288687 0.283030 -5.103094 27.614455 -0.663960 -1.220815 16.752192 -0.000000 -0.000001 0.000004 -3.260864 -8.562469 12.395844 4.034560 -4.062541 33.889377 2.107993 -3.159525 16.220116 -0.000000 0.000000 -0.000004 -20.988451 14.792528 17.117543 32.307297 8.206594 -4.272433 -13.071549 -2.443972 -9.514038 -0.153114 0.007548 -0.297625 -0.000000 0.000000 0.000000 -14.043138 0.394438 -13.210167 27.045761 10.233923 2.598647 -16.792090 -4.428740 7.713139 -1.253125 -0.016746 0.151300 0.000000 0.000002 0.000000 
-0.232493 33.052971 -0.581042 3.569546 -23.695639 1.366690 6.424146 0.938993 -3.114051 1.662630 0.618022 2.465395 0.000000 0.000000 0.000000 1.619628 0.757047 2.301281 -6.324931 14.707612 -5.323786 -7.042617 9.995198 2.091715 0.000000 -0.000000 -0.000000 -0.430497 -4.648622 -2.168002 0.000000 0.000000 0.000000 -55.715827 9.563774 -35.523804 35.115273 -76.191259 35.108600 -49.399654 8.212409 1.585886 17.551626 -5.699199 -12.932283 10.850448 26.127710 8.644827 20.926996 51.115876 0.218817 -0.000001 0.000001 -0.000002 13.980895 1.201540 -55.004381 0.370803 1.161753 -65.441893 1.983978 2.147982 -57.665136 0.000001 0.000000 0.000000 7.504734 1.174497 -63.778517 1.807803 1.475674 -64.567937 0.130350 -0.912235 -43.272534 0.000000 0.000001 -0.000001 8.574334 2.179168 -75.149006 -0.207645 1.009279 -57.855049 0.443110 1.742195 -53.581270 0.000001 0.000003 -0.000000 4.681188 9.389226 6.355675 0.000000 0.000000 0.000000 2.453032 -3.699826 62.477906 16.528079 18.324163 -8.202590 -1.848604 7.260510 5.774296 16.393810 -2.752485 -16.037687 -3.084467 -29.827832 7.255407 -6.122387 -5.056206 2.208560 -0.000000 0.000000 0.000003 2.377805 -3.659008 9.533905 -2.150777 -2.473340 19.719234 -1.904382 -4.819011 15.219326 -0.000000 0.000000 0.000002 -1.976141 -5.708374 14.708370 0.283244 -5.105822 28.034061 -0.663105 -1.221025 17.171866 0.000000 0.000000 -0.000001 -3.262924 -8.562614 12.815182 4.033551 -4.062814 34.308962 2.108088 -3.159799 16.639791 0.000000 -0.000000 -0.000001 -22.566378 14.218958 17.159018 33.642418 7.501392 -4.103524 -13.302733 -3.138798 -9.263015 -0.145440 0.007513 -0.306475 0.000000 0.000000 -0.000000 -13.258557 0.097463 -13.167184 28.090259 8.659818 2.347235 -18.456086 -4.434852 8.106253 -1.175332 -0.016531 0.151330 0.000000 -0.000001 -0.000000 
